<?xml version="1.0" encoding="UTF-8" standalone="no"?>
<!DOCTYPE svg PUBLIC "-//W3C//DTD SVG 1.1//EN"
 "http://www.w3.org/Graphics/SVG/1.1/DTD/svg11.dtd">
<!-- Generated by graphviz version 2.47.0 (20210316.0004)
 -->
<!-- Title: dbml Pages: 1 -->
<svg width="1315pt" height="2013pt"
 viewBox="0.00 0.00 1315.38 2013.05" xmlns="http://www.w3.org/2000/svg" xmlns:xlink="http://www.w3.org/1999/xlink">
<g id="graph0" class="graph" transform="scale(1 1) rotate(0) translate(4 2009.05)">
<title>dbml</title>
<!-- sessions -->
<g id="sessions" class="node">
<title>sessions</title>
<ellipse fill="none" stroke="black" stroke-width="0" cx="472.35" cy="-257.39" rx="472.19" ry="257.27"/>
<polygon fill="#1d71b8" stroke="transparent" points="140.35,-377.39 140.35,-437.39 804.35,-437.39 804.35,-377.39 140.35,-377.39"/>
<polygon fill="none" stroke="#29235c" points="140.35,-377.39 140.35,-437.39 804.35,-437.39 804.35,-377.39 140.35,-377.39"/>
<text text-anchor="start" x="347.86" y="-398.59" font-family="Helvetica,sans-Serif" font-weight="bold" font-size="32.00" fill="#ffffff"> &#160;&#160;&#160;&#160;&#160;&#160;sessions &#160;&#160;&#160;&#160;&#160;&#160;</text>
<polygon fill="#e7e2dd" stroke="transparent" points="140.35,-317.39 140.35,-377.39 804.35,-377.39 804.35,-317.39 140.35,-317.39"/>
<polygon fill="none" stroke="#29235c" points="140.35,-317.39 140.35,-377.39 804.35,-377.39 804.35,-317.39 140.35,-317.39"/>
<text text-anchor="start" x="151.35" y="-338.59" font-family="Helvetica,sans-Serif" font-weight="bold" font-size="32.00" fill="#29235c">id</text>
<text text-anchor="start" x="176.24" y="-338.59" font-family="Helvetica,sans-Serif" font-size="32.00" fill="#29235c"> &#160;&#160;&#160;</text>
<text text-anchor="start" x="702.68" y="-338.59" font-family="Helvetica,sans-Serif" font-style="italic" font-size="32.00" fill="#29235c">text</text>
<text text-anchor="start" x="754.26" y="-338.59" font-family="Helvetica,sans-Serif" font-size="32.00" fill="#29235c"> </text>
<text text-anchor="start" x="763.15" y="-338.59" font-family="Helvetica,sans-Serif" font-weight="bold" font-size="32.00" fill="#29235c">(!)</text>
<polygon fill="#e7e2dd" stroke="transparent" points="140.35,-257.39 140.35,-317.39 804.35,-317.39 804.35,-257.39 140.35,-257.39"/>
<polygon fill="none" stroke="#29235c" points="140.35,-257.39 140.35,-317.39 804.35,-317.39 804.35,-257.39 140.35,-257.39"/>
<text text-anchor="start" x="151.35" y="-277.59" font-family="Helvetica,sans-Serif" font-size="32.00" fill="#29235c">user_id &#160;&#160;&#160;</text>
<text text-anchor="start" x="693.79" y="-278.59" font-family="Helvetica,sans-Serif" font-style="italic" font-size="32.00" fill="#29235c">uuid</text>
<text text-anchor="start" x="754.26" y="-278.59" font-family="Helvetica,sans-Serif" font-size="32.00" fill="#29235c"> </text>
<text text-anchor="start" x="763.15" y="-278.59" font-family="Helvetica,sans-Serif" font-weight="bold" font-size="32.00" fill="#29235c">(!)</text>
<polygon fill="#e7e2dd" stroke="transparent" points="140.35,-197.39 140.35,-257.39 804.35,-257.39 804.35,-197.39 140.35,-197.39"/>
<polygon fill="none" stroke="#29235c" points="140.35,-197.39 140.35,-257.39 804.35,-257.39 804.35,-197.39 140.35,-197.39"/>
<text text-anchor="start" x="151.35" y="-217.59" font-family="Helvetica,sans-Serif" font-size="32.00" fill="#29235c">expires_at &#160;&#160;&#160;</text>
<text text-anchor="start" x="393.33" y="-218.59" font-family="Helvetica,sans-Serif" font-style="italic" font-size="32.00" fill="#29235c">timestamp with time zone</text>
<text text-anchor="start" x="754.26" y="-218.59" font-family="Helvetica,sans-Serif" font-size="32.00" fill="#29235c"> </text>
<text text-anchor="start" x="763.15" y="-218.59" font-family="Helvetica,sans-Serif" font-weight="bold" font-size="32.00" fill="#29235c">(!)</text>
<polygon fill="#e7e2dd" stroke="transparent" points="140.35,-137.39 140.35,-197.39 804.35,-197.39 804.35,-137.39 140.35,-137.39"/>
<polygon fill="none" stroke="#29235c" points="140.35,-137.39 140.35,-197.39 804.35,-197.39 804.35,-137.39 140.35,-137.39"/>
<text text-anchor="start" x="151.35" y="-157.59" font-family="Helvetica,sans-Serif" font-size="32.00" fill="#29235c">created_at &#160;&#160;&#160;</text>
<text text-anchor="start" x="345.35" y="-158.59" font-family="Helvetica,sans-Serif" font-style="italic" font-size="32.00" fill="#29235c">timestamp (3) with time zone</text>
<text text-anchor="start" x="754.26" y="-158.59" font-family="Helvetica,sans-Serif" font-size="32.00" fill="#29235c"> </text>
<text text-anchor="start" x="763.15" y="-158.59" font-family="Helvetica,sans-Serif" font-weight="bold" font-size="32.00" fill="#29235c">(!)</text>
<polygon fill="#e7e2dd" stroke="transparent" points="140.35,-77.39 140.35,-137.39 804.35,-137.39 804.35,-77.39 140.35,-77.39"/>
<polygon fill="none" stroke="#29235c" points="140.35,-77.39 140.35,-137.39 804.35,-137.39 804.35,-77.39 140.35,-77.39"/>
<text text-anchor="start" x="151.01" y="-97.59" font-family="Helvetica,sans-Serif" font-size="32.00" fill="#29235c">updated_at &#160;&#160;&#160;</text>
<text text-anchor="start" x="345.85" y="-98.59" font-family="Helvetica,sans-Serif" font-style="italic" font-size="32.00" fill="#29235c">timestamp (3) with time zone</text>
<text text-anchor="start" x="754.76" y="-98.59" font-family="Helvetica,sans-Serif" font-size="32.00" fill="#29235c"> </text>
<text text-anchor="start" x="763.65" y="-98.59" font-family="Helvetica,sans-Serif" font-weight="bold" font-size="32.00" fill="#29235c">(!)</text>
<polygon fill="none" stroke="#29235c" stroke-width="2" points="139.35,-76.39 139.35,-438.39 805.35,-438.39 805.35,-76.39 139.35,-76.39"/>
</g>
<!-- devices -->
<g id="devices" class="node">
<title>devices</title>
<ellipse fill="none" stroke="black" stroke-width="0" cx="472.35" cy="-1620.39" rx="472.19" ry="384.83"/>
<polygon fill="#1d71b8" stroke="transparent" points="140.35,-1830.39 140.35,-1890.39 804.35,-1890.39 804.35,-1830.39 140.35,-1830.39"/>
<polygon fill="none" stroke="#29235c" points="140.35,-1830.39 140.35,-1890.39 804.35,-1890.39 804.35,-1830.39 140.35,-1830.39"/>
<text text-anchor="start" x="355.86" y="-1851.59" font-family="Helvetica,sans-Serif" font-weight="bold" font-size="32.00" fill="#ffffff"> &#160;&#160;&#160;&#160;&#160;&#160;devices &#160;&#160;&#160;&#160;&#160;&#160;</text>
<polygon fill="#e7e2dd" stroke="transparent" points="140.35,-1770.39 140.35,-1830.39 804.35,-1830.39 804.35,-1770.39 140.35,-1770.39"/>
<polygon fill="none" stroke="#29235c" points="140.35,-1770.39 140.35,-1830.39 804.35,-1830.39 804.35,-1770.39 140.35,-1770.39"/>
<text text-anchor="start" x="151.35" y="-1791.59" font-family="Helvetica,sans-Serif" font-weight="bold" font-size="32.00" fill="#29235c">id</text>
<text text-anchor="start" x="176.24" y="-1791.59" font-family="Helvetica,sans-Serif" font-size="32.00" fill="#29235c"> &#160;&#160;&#160;</text>
<text text-anchor="start" x="693.79" y="-1791.59" font-family="Helvetica,sans-Serif" font-style="italic" font-size="32.00" fill="#29235c">uuid</text>
<text text-anchor="start" x="754.26" y="-1791.59" font-family="Helvetica,sans-Serif" font-size="32.00" fill="#29235c"> </text>
<text text-anchor="start" x="763.15" y="-1791.59" font-family="Helvetica,sans-Serif" font-weight="bold" font-size="32.00" fill="#29235c">(!)</text>
<polygon fill="#e7e2dd" stroke="transparent" points="140.35,-1710.39 140.35,-1770.39 804.35,-1770.39 804.35,-1710.39 140.35,-1710.39"/>
<polygon fill="none" stroke="#29235c" points="140.35,-1710.39 140.35,-1770.39 804.35,-1770.39 804.35,-1710.39 140.35,-1710.39"/>
<text text-anchor="start" x="151.35" y="-1730.59" font-family="Helvetica,sans-Serif" font-size="32.00" fill="#29235c">user_id &#160;&#160;&#160;</text>
<text text-anchor="start" x="693.79" y="-1731.59" font-family="Helvetica,sans-Serif" font-style="italic" font-size="32.00" fill="#29235c">uuid</text>
<text text-anchor="start" x="754.26" y="-1731.59" font-family="Helvetica,sans-Serif" font-size="32.00" fill="#29235c"> </text>
<text text-anchor="start" x="763.15" y="-1731.59" font-family="Helvetica,sans-Serif" font-weight="bold" font-size="32.00" fill="#29235c">(!)</text>
<polygon fill="#e7e2dd" stroke="transparent" points="140.35,-1650.39 140.35,-1710.39 804.35,-1710.39 804.35,-1650.39 140.35,-1650.39"/>
<polygon fill="none" stroke="#29235c" points="140.35,-1650.39 140.35,-1710.39 804.35,-1710.39 804.35,-1650.39 140.35,-1650.39"/>
<text text-anchor="start" x="151.35" y="-1670.59" font-family="Helvetica,sans-Serif" font-size="32.00" fill="#29235c">ip &#160;&#160;&#160;</text>
<text text-anchor="start" x="647.58" y="-1671.59" font-family="Helvetica,sans-Serif" font-style="italic" font-size="32.00" fill="#29235c">varchar</text>
<text text-anchor="start" x="754.26" y="-1671.59" font-family="Helvetica,sans-Serif" font-size="32.00" fill="#29235c"> </text>
<text text-anchor="start" x="763.15" y="-1671.59" font-family="Helvetica,sans-Serif" font-weight="bold" font-size="32.00" fill="#29235c">(!)</text>
<polygon fill="#e7e2dd" stroke="transparent" points="140.35,-1590.39 140.35,-1650.39 804.35,-1650.39 804.35,-1590.39 140.35,-1590.39"/>
<polygon fill="none" stroke="#29235c" points="140.35,-1590.39 140.35,-1650.39 804.35,-1650.39 804.35,-1590.39 140.35,-1590.39"/>
<text text-anchor="start" x="151.35" y="-1610.59" font-family="Helvetica,sans-Serif" font-size="32.00" fill="#29235c">detected_browser &#160;&#160;&#160;</text>
<text text-anchor="start" x="702.68" y="-1611.59" font-family="Helvetica,sans-Serif" font-style="italic" font-size="32.00" fill="#29235c">text</text>
<text text-anchor="start" x="754.26" y="-1611.59" font-family="Helvetica,sans-Serif" font-size="32.00" fill="#29235c"> </text>
<text text-anchor="start" x="763.15" y="-1611.59" font-family="Helvetica,sans-Serif" font-weight="bold" font-size="32.00" fill="#29235c">(!)</text>
<polygon fill="#e7e2dd" stroke="transparent" points="140.35,-1530.39 140.35,-1590.39 804.35,-1590.39 804.35,-1530.39 140.35,-1530.39"/>
<polygon fill="none" stroke="#29235c" points="140.35,-1530.39 140.35,-1590.39 804.35,-1590.39 804.35,-1530.39 140.35,-1530.39"/>
<text text-anchor="start" x="151.35" y="-1550.59" font-family="Helvetica,sans-Serif" font-size="32.00" fill="#29235c">detected_os &#160;&#160;&#160;</text>
<text text-anchor="start" x="702.68" y="-1551.59" font-family="Helvetica,sans-Serif" font-style="italic" font-size="32.00" fill="#29235c">text</text>
<text text-anchor="start" x="754.26" y="-1551.59" font-family="Helvetica,sans-Serif" font-size="32.00" fill="#29235c"> </text>
<text text-anchor="start" x="763.15" y="-1551.59" font-family="Helvetica,sans-Serif" font-weight="bold" font-size="32.00" fill="#29235c">(!)</text>
<polygon fill="#e7e2dd" stroke="transparent" points="140.35,-1470.39 140.35,-1530.39 804.35,-1530.39 804.35,-1470.39 140.35,-1470.39"/>
<polygon fill="none" stroke="#29235c" points="140.35,-1470.39 140.35,-1530.39 804.35,-1530.39 804.35,-1470.39 140.35,-1470.39"/>
<text text-anchor="start" x="151.35" y="-1490.59" font-family="Helvetica,sans-Serif" font-size="32.00" fill="#29235c">detected_device &#160;&#160;&#160;</text>
<text text-anchor="start" x="702.68" y="-1491.59" font-family="Helvetica,sans-Serif" font-style="italic" font-size="32.00" fill="#29235c">text</text>
<text text-anchor="start" x="754.26" y="-1491.59" font-family="Helvetica,sans-Serif" font-size="32.00" fill="#29235c"> </text>
<text text-anchor="start" x="763.15" y="-1491.59" font-family="Helvetica,sans-Serif" font-weight="bold" font-size="32.00" fill="#29235c">(!)</text>
<polygon fill="#e7e2dd" stroke="transparent" points="140.35,-1410.39 140.35,-1470.39 804.35,-1470.39 804.35,-1410.39 140.35,-1410.39"/>
<polygon fill="none" stroke="#29235c" points="140.35,-1410.39 140.35,-1470.39 804.35,-1470.39 804.35,-1410.39 140.35,-1410.39"/>
<text text-anchor="start" x="151.35" y="-1430.59" font-family="Helvetica,sans-Serif" font-size="32.00" fill="#29235c">created_at &#160;&#160;&#160;</text>
<text text-anchor="start" x="345.35" y="-1431.59" font-family="Helvetica,sans-Serif" font-style="italic" font-size="32.00" fill="#29235c">timestamp (3) with time zone</text>
<text text-anchor="start" x="754.26" y="-1431.59" font-family="Helvetica,sans-Serif" font-size="32.00" fill="#29235c"> </text>
<text text-anchor="start" x="763.15" y="-1431.59" font-family="Helvetica,sans-Serif" font-weight="bold" font-size="32.00" fill="#29235c">(!)</text>
<polygon fill="#e7e2dd" stroke="transparent" points="140.35,-1350.39 140.35,-1410.39 804.35,-1410.39 804.35,-1350.39 140.35,-1350.39"/>
<polygon fill="none" stroke="#29235c" points="140.35,-1350.39 140.35,-1410.39 804.35,-1410.39 804.35,-1350.39 140.35,-1350.39"/>
<text text-anchor="start" x="151.01" y="-1370.59" font-family="Helvetica,sans-Serif" font-size="32.00" fill="#29235c">updated_at &#160;&#160;&#160;</text>
<text text-anchor="start" x="345.85" y="-1371.59" font-family="Helvetica,sans-Serif" font-style="italic" font-size="32.00" fill="#29235c">timestamp (3) with time zone</text>
<text text-anchor="start" x="754.76" y="-1371.59" font-family="Helvetica,sans-Serif" font-size="32.00" fill="#29235c"> </text>
<text text-anchor="start" x="763.65" y="-1371.59" font-family="Helvetica,sans-Serif" font-weight="bold" font-size="32.00" fill="#29235c">(!)</text>
<polygon fill="none" stroke="#29235c" stroke-width="2" points="139.35,-1349.39 139.35,-1891.39 805.35,-1891.39 805.35,-1349.39 139.35,-1349.39"/>
</g>
<!-- ips -->
<g id="ips" class="node">
<title>ips</title>
<ellipse fill="none" stroke="black" stroke-width="0" cx="1144.04" cy="-1352.39" rx="163.18" ry="130.22"/>
<polygon fill="#1d71b8" stroke="transparent" points="1031.04,-1382.39 1031.04,-1442.39 1258.04,-1442.39 1258.04,-1382.39 1031.04,-1382.39"/>
<polygon fill="none" stroke="#29235c" points="1031.04,-1382.39 1031.04,-1442.39 1258.04,-1442.39 1258.04,-1382.39 1031.04,-1382.39"/>
<text text-anchor="start" x="1061.84" y="-1403.59" font-family="Helvetica,sans-Serif" font-weight="bold" font-size="32.00" fill="#ffffff"> &#160;&#160;&#160;&#160;&#160;&#160;ips &#160;&#160;&#160;&#160;&#160;&#160;</text>
<polygon fill="#e7e2dd" stroke="transparent" points="1031.04,-1322.39 1031.04,-1382.39 1258.04,-1382.39 1258.04,-1322.39 1031.04,-1322.39"/>
<polygon fill="none" stroke="#29235c" points="1031.04,-1322.39 1031.04,-1382.39 1258.04,-1382.39 1258.04,-1322.39 1031.04,-1322.39"/>
<text text-anchor="start" x="1041.81" y="-1343.59" font-family="Helvetica,sans-Serif" font-weight="bold" font-size="32.00" fill="#29235c">ip</text>
<text text-anchor="start" x="1066.7" y="-1343.59" font-family="Helvetica,sans-Serif" font-size="32.00" fill="#29235c"> &#160;&#160;&#160;</text>
<text text-anchor="start" x="1101.65" y="-1343.59" font-family="Helvetica,sans-Serif" font-style="italic" font-size="32.00" fill="#29235c">varchar</text>
<text text-anchor="start" x="1208.33" y="-1343.59" font-family="Helvetica,sans-Serif" font-size="32.00" fill="#29235c"> </text>
<text text-anchor="start" x="1217.22" y="-1343.59" font-family="Helvetica,sans-Serif" font-weight="bold" font-size="32.00" fill="#29235c">(!)</text>
<polygon fill="#e7e2dd" stroke="transparent" points="1031.04,-1262.39 1031.04,-1322.39 1258.04,-1322.39 1258.04,-1262.39 1031.04,-1262.39"/>
<polygon fill="none" stroke="#29235c" points="1031.04,-1262.39 1031.04,-1322.39 1258.04,-1322.39 1258.04,-1262.39 1031.04,-1262.39"/>
<text text-anchor="start" x="1042.04" y="-1282.59" font-family="Helvetica,sans-Serif" font-size="32.00" fill="#29235c">userId &#160;&#160;&#160;</text>
<text text-anchor="start" x="1186.57" y="-1283.59" font-family="Helvetica,sans-Serif" font-style="italic" font-size="32.00" fill="#29235c">uuid</text>
<polygon fill="none" stroke="#29235c" stroke-width="2" points="1029.54,-1261.39 1029.54,-1443.39 1258.54,-1443.39 1258.54,-1261.39 1029.54,-1261.39"/>
</g>
<!-- devices&#45;&gt;ips -->
<!-- devices&#45;&gt;ips -->
<g id="edge2" class="edge">
<title>devices:e&#45;&gt;ips:w</title>
<path fill="none" stroke="#29235c" stroke-width="3" d="M805.35,-1680.39C978.6,-1680.39 858.25,-1365.07 1020.03,-1352.76"/>
<polygon fill="#29235c" stroke="#29235c" stroke-width="3" points="1020.17,-1356.25 1030.04,-1352.39 1019.91,-1349.26 1020.17,-1356.25"/>
<text text-anchor="middle" x="1021.14" y="-1361.99" font-family="Helvetica,sans-Serif" font-size="32.00" fill="#29235c">1</text>
<text text-anchor="middle" x="799.12" y="-1689.99" font-family="Helvetica,sans-Serif" font-size="32.00" fill="#29235c">*</text>
</g>
<!-- users -->
<g id="users" class="node">
<title>users</title>
<ellipse fill="none" stroke="black" stroke-width="0" cx="472.35" cy="-875.39" rx="472.19" ry="342.48"/>
<polygon fill="#1d71b8" stroke="transparent" points="140.35,-1055.39 140.35,-1115.39 804.35,-1115.39 804.35,-1055.39 140.35,-1055.39"/>
<polygon fill="none" stroke="#29235c" points="140.35,-1055.39 140.35,-1115.39 804.35,-1115.39 804.35,-1055.39 140.35,-1055.39"/>
<text text-anchor="start" x="370.98" y="-1076.59" font-family="Helvetica,sans-Serif" font-weight="bold" font-size="32.00" fill="#ffffff"> &#160;&#160;&#160;&#160;&#160;&#160;users &#160;&#160;&#160;&#160;&#160;&#160;</text>
<polygon fill="#e7e2dd" stroke="transparent" points="140.35,-995.39 140.35,-1055.39 804.35,-1055.39 804.35,-995.39 140.35,-995.39"/>
<polygon fill="none" stroke="#29235c" points="140.35,-995.39 140.35,-1055.39 804.35,-1055.39 804.35,-995.39 140.35,-995.39"/>
<text text-anchor="start" x="151.35" y="-1016.59" font-family="Helvetica,sans-Serif" font-weight="bold" font-size="32.00" fill="#29235c">id</text>
<text text-anchor="start" x="176.24" y="-1016.59" font-family="Helvetica,sans-Serif" font-size="32.00" fill="#29235c"> &#160;&#160;&#160;</text>
<text text-anchor="start" x="693.79" y="-1016.59" font-family="Helvetica,sans-Serif" font-style="italic" font-size="32.00" fill="#29235c">uuid</text>
<text text-anchor="start" x="754.26" y="-1016.59" font-family="Helvetica,sans-Serif" font-size="32.00" fill="#29235c"> </text>
<text text-anchor="start" x="763.15" y="-1016.59" font-family="Helvetica,sans-Serif" font-weight="bold" font-size="32.00" fill="#29235c">(!)</text>
<polygon fill="#e7e2dd" stroke="transparent" points="140.35,-935.39 140.35,-995.39 804.35,-995.39 804.35,-935.39 140.35,-935.39"/>
<polygon fill="none" stroke="#29235c" points="140.35,-935.39 140.35,-995.39 804.35,-995.39 804.35,-935.39 140.35,-935.39"/>
<text text-anchor="start" x="151.35" y="-955.59" font-family="Helvetica,sans-Serif" font-size="32.00" fill="#29235c">first_name &#160;&#160;&#160;</text>
<text text-anchor="start" x="741.77" y="-956.59" font-family="Helvetica,sans-Serif" font-style="italic" font-size="32.00" fill="#29235c">text</text>
<polygon fill="#e7e2dd" stroke="transparent" points="140.35,-875.39 140.35,-935.39 804.35,-935.39 804.35,-875.39 140.35,-875.39"/>
<polygon fill="none" stroke="#29235c" points="140.35,-875.39 140.35,-935.39 804.35,-935.39 804.35,-875.39 140.35,-875.39"/>
<text text-anchor="start" x="151.35" y="-895.59" font-family="Helvetica,sans-Serif" font-size="32.00" fill="#29235c">last_name &#160;&#160;&#160;</text>
<text text-anchor="start" x="741.77" y="-896.59" font-family="Helvetica,sans-Serif" font-style="italic" font-size="32.00" fill="#29235c">text</text>
<polygon fill="#e7e2dd" stroke="transparent" points="140.35,-815.39 140.35,-875.39 804.35,-875.39 804.35,-815.39 140.35,-815.39"/>
<polygon fill="none" stroke="#29235c" points="140.35,-815.39 140.35,-875.39 804.35,-875.39 804.35,-815.39 140.35,-815.39"/>
<text text-anchor="start" x="151.35" y="-835.59" font-family="Helvetica,sans-Serif" font-size="32.00" fill="#29235c">phone &#160;&#160;&#160;</text>
<text text-anchor="start" x="612" y="-836.59" font-family="Helvetica,sans-Serif" font-style="italic" font-size="32.00" fill="#29235c">varchar(256)</text>
<polygon fill="#e7e2dd" stroke="transparent" points="140.35,-755.39 140.35,-815.39 804.35,-815.39 804.35,-755.39 140.35,-755.39"/>
<polygon fill="none" stroke="#29235c" points="140.35,-755.39 140.35,-815.39 804.35,-815.39 804.35,-755.39 140.35,-755.39"/>
<text text-anchor="start" x="151.35" y="-775.59" font-family="Helvetica,sans-Serif" font-size="32.00" fill="#29235c">ip &#160;&#160;&#160;</text>
<text text-anchor="start" x="647.58" y="-776.59" font-family="Helvetica,sans-Serif" font-style="italic" font-size="32.00" fill="#29235c">varchar</text>
<text text-anchor="start" x="754.26" y="-776.59" font-family="Helvetica,sans-Serif" font-size="32.00" fill="#29235c"> </text>
<text text-anchor="start" x="763.15" y="-776.59" font-family="Helvetica,sans-Serif" font-weight="bold" font-size="32.00" fill="#29235c">(!)</text>
<polygon fill="#e7e2dd" stroke="transparent" points="140.35,-695.39 140.35,-755.39 804.35,-755.39 804.35,-695.39 140.35,-695.39"/>
<polygon fill="none" stroke="#29235c" points="140.35,-695.39 140.35,-755.39 804.35,-755.39 804.35,-695.39 140.35,-695.39"/>
<text text-anchor="start" x="151.35" y="-715.59" font-family="Helvetica,sans-Serif" font-size="32.00" fill="#29235c">created_at &#160;&#160;&#160;</text>
<text text-anchor="start" x="345.35" y="-716.59" font-family="Helvetica,sans-Serif" font-style="italic" font-size="32.00" fill="#29235c">timestamp (3) with time zone</text>
<text text-anchor="start" x="754.26" y="-716.59" font-family="Helvetica,sans-Serif" font-size="32.00" fill="#29235c"> </text>
<text text-anchor="start" x="763.15" y="-716.59" font-family="Helvetica,sans-Serif" font-weight="bold" font-size="32.00" fill="#29235c">(!)</text>
<polygon fill="#e7e2dd" stroke="transparent" points="140.35,-635.39 140.35,-695.39 804.35,-695.39 804.35,-635.39 140.35,-635.39"/>
<polygon fill="none" stroke="#29235c" points="140.35,-635.39 140.35,-695.39 804.35,-695.39 804.35,-635.39 140.35,-635.39"/>
<text text-anchor="start" x="151.01" y="-655.59" font-family="Helvetica,sans-Serif" font-size="32.00" fill="#29235c">updated_at &#160;&#160;&#160;</text>
<text text-anchor="start" x="345.85" y="-656.59" font-family="Helvetica,sans-Serif" font-style="italic" font-size="32.00" fill="#29235c">timestamp (3) with time zone</text>
<text text-anchor="start" x="754.76" y="-656.59" font-family="Helvetica,sans-Serif" font-size="32.00" fill="#29235c"> </text>
<text text-anchor="start" x="763.65" y="-656.59" font-family="Helvetica,sans-Serif" font-weight="bold" font-size="32.00" fill="#29235c">(!)</text>
<polygon fill="none" stroke="#29235c" stroke-width="2" points="139.35,-634.39 139.35,-1116.39 805.35,-1116.39 805.35,-634.39 139.35,-634.39"/>
</g>
<!-- users&#45;&gt;ips -->
<!-- users&#45;&gt;ips -->
<g id="edge4" class="edge">
<title>users:e&#45;&gt;ips:w</title>
<path fill="none" stroke="#29235c" stroke-width="3" d="M805.35,-785.39C937.44,-785.39 896.74,-1323.96 1020.06,-1351.31"/>
<polygon fill="#29235c" stroke="#29235c" stroke-width="3" points="1019.72,-1354.79 1030.04,-1352.39 1020.47,-1347.83 1019.72,-1354.79"/>
<text text-anchor="middle" x="1038.93" y="-1361.99" font-family="Helvetica,sans-Serif" font-size="32.00" fill="#29235c">1</text>
<text text-anchor="middle" x="796.45" y="-794.99" font-family="Helvetica,sans-Serif" font-size="32.00" fill="#29235c">1</text>
</g>
</g>
</svg>
